PathFileType	4	(X/Y/Z)	C:\Users\86182\Documents\cortex\Trimmed_M1_H2.trc
DataRate	CameraRate	NumFrames	NumMarkers	Units	OrigDataRate	OrigDataStartFrame	OrigNumFrames
100.00	100.00	      169	2	mm	100.00	601	      1001
Frame#	Time	gripper			box			
		X1	Y1	Z1	X2	Y2	Z2	

601	6.000	200.32686	196.27303	292.68622	201.41934	195.28410	151.38324	
602	6.010	200.32982	196.27319	292.68527	201.42123	195.28410	151.38368	
603	6.020	200.33200	196.27306	292.68414	201.42299	195.28384	151.38408	
604	6.030	200.33286	196.27269	292.68323	201.42474	195.28336	151.38446	
605	6.040	200.33206	196.27217	292.68274	201.42628	195.28268	151.38501	
606	6.050	200.32974	196.27150	292.68277	201.42732	195.28185	151.38577	
607	6.060	200.32643	196.27074	292.68304	201.42772	195.28085	151.38647	
608	6.070	200.32295	196.26996	292.68335	201.42761	195.27982	151.38666	
609	6.080	200.31989	196.26932	292.68372	201.42735	195.27892	151.38586	
610	6.090	200.31740	196.26878	292.68393	201.42719	195.27837	151.38400	
611	6.100	200.31538	196.26820	292.68381	201.42708	195.27840	151.38110	
612	6.110	200.31377	196.26749	292.68323	201.42673	195.27916	151.37723	
613	6.120	200.31259	196.26672	292.68231	201.42584	195.28064	151.37267	
614	6.130	200.31212	196.26624	292.68149	201.42429	195.28259	151.36807	
615	6.140	200.31264	196.26634	292.68118	201.42207	195.28468	151.36432	
616	6.150	200.31406	196.26707	292.68155	201.41927	195.28662	151.36215	
617	6.160	200.31584	196.26814	292.68246	201.41603	195.28821	151.36185	
618	6.170	200.31750	196.26926	292.68365	201.41269	195.28937	151.36340	
619	6.180	200.31889	196.27026	292.68494	201.40971	195.29008	151.36646	
620	6.190	200.32002	196.27115	292.68619	201.40778	195.29041	151.37054	
621	6.200	200.32098	196.27191	292.68732	201.40746	195.29037	151.37498	
622	6.210	200.32191	196.27252	292.68814	201.40886	195.29010	151.37898	
623	6.220	200.32291	196.27295	292.68860	201.41132	195.28970	151.38171	
624	6.230	200.32393	196.27316	292.68857	201.41336	195.28928	151.38242	
625	6.240	200.32474	196.27309	292.68808	201.41284	195.28889	151.38037	
626	6.250	200.32509	196.27277	292.68732	201.40712	195.28859	151.37473	
627	6.260	200.32477	196.27232	292.68665	201.39359	195.28836	151.36435	
628	6.270	200.32375	196.27194	292.68634	201.37036	195.28821	151.34775	
629	6.280	200.32227	196.27168	292.68652	201.33678	195.28824	151.32376	
630	6.290	200.32072	196.27162	292.68707	201.29378	195.28865	151.29233	
631	6.300	200.31949	196.27174	292.68787	201.24446	195.28978	151.25494	
632	6.310	200.31866	196.27205	292.68872	201.19426	195.29185	151.21442	
633	6.320	200.31818	196.27238	292.68958	201.14911	195.29451	151.17438	
634	6.330	200.31783	196.27267	292.69028	201.11298	195.29698	151.13846	
635	6.340	200.31757	196.27290	292.69083	201.08681	195.29877	151.10947	
636	6.350	200.31744	196.27310	292.69122	201.06972	195.29984	151.08846	
637	6.360	200.31749	196.27324	292.69141	201.06009	195.30025	151.07465	
638	6.370	200.31787	196.27325	292.69122	201.05615	195.30009	151.06635	
639	6.380	200.31877	196.27321	292.69067	201.05640	195.29947	151.06177	
640	6.390	200.32042	196.27315	292.68982	201.05965	195.29848	151.05939	
641	6.400	200.32291	196.27318	292.68869	201.06461	195.29721	151.05807	
642	6.410	200.32626	196.27336	292.68744	201.06985	195.29590	151.05707	
643	6.420	200.33032	196.27377	292.68619	201.07440	195.29474	151.05611	
644	6.430	200.33479	196.27440	292.68506	201.07788	195.29387	151.05525	
645	6.440	200.33911	196.27513	292.68414	201.08020	195.29338	151.05466	
646	6.450	200.34265	196.27585	292.68350	201.08122	195.29324	151.05435	
647	6.460	200.34477	196.27644	292.68329	201.08109	195.29340	151.05423	
648	6.470	200.34508	196.27681	292.68350	201.08038	195.29362	151.05411	
649	6.480	200.34364	196.27684	292.68399	201.07965	195.29373	151.05371	
650	6.490	200.34090	196.27650	292.68451	201.07887	195.29361	151.05290	
651	6.500	200.33734	196.27586	292.68494	201.07741	195.29332	151.05161	
652	6.510	200.33337	196.27493	292.68524	201.07471	195.29301	151.04977	
653	6.520	200.32932	196.27380	292.68536	201.07082	195.29272	151.04742	
654	6.530	200.32565	196.27260	292.68530	201.06644	195.29248	151.04465	
655	6.540	200.32285	196.27151	292.68500	201.06239	195.29231	151.04173	
656	6.550	200.32130	196.27072	292.68451	201.05942	195.29222	151.03897	
657	6.560	200.32132	196.27036	292.68387	201.05789	195.29219	151.03659	
658	6.570	200.32304	196.27048	292.68317	201.05801	195.29221	151.03461	
659	6.580	200.32628	196.27094	292.68228	201.05997	195.29233	151.03287	
660	6.590	200.33054	196.27148	292.68106	201.06392	195.29256	151.03104	
661	6.600	200.33516	196.27191	292.67944	201.06969	195.29289	151.02869	
662	6.610	200.33949	196.27219	292.67780	201.07652	195.29337	151.02515	
663	6.620	200.34303	196.27246	292.67651	201.08325	195.29399	151.01945	
664	6.630	200.34550	196.27289	292.67606	201.08871	195.29483	151.01016	
665	6.640	200.34662	196.27348	292.67667	201.09210	195.29602	150.99518	
666	6.650	200.34618	196.27414	292.67825	201.09315	195.29761	150.97211	
667	6.660	200.34438	196.27466	292.68036	201.09241	195.29953	150.93900	
668	6.670	200.34163	196.27493	292.68250	201.09091	195.30142	150.89554	
669	6.680	200.33841	196.27496	292.68430	201.08978	195.30295	150.84407	
670	6.690	200.33534	196.27483	292.68549	201.08966	195.30403	150.78973	
671	6.700	200.33292	196.27464	292.68591	201.09062	195.30515	150.73856	
672	6.710	200.33133	196.27451	292.68555	201.09247	195.30705	150.69524	
673	6.720	200.33058	196.27449	292.68463	201.09473	195.31026	150.66196	
674	6.730	200.33066	196.27470	292.68344	201.09680	195.31454	150.63870	
675	6.740	200.33142	196.27510	292.68222	201.09843	195.31915	150.62415	
676	6.750	200.33240	196.27550	292.68121	201.09979	195.32309	150.61642	
677	6.760	200.33302	196.27557	292.68054	201.10097	195.32550	150.61365	
678	6.770	200.33310	196.27518	292.68021	201.10176	195.32603	150.61433	
679	6.780	200.33310	196.27443	292.68011	201.10225	195.32492	150.61700	
680	6.790	200.33372	196.27376	292.68024	201.10320	195.32283	150.62024	
681	6.800	200.33543	196.27348	292.68048	201.10516	195.32059	150.62283	
682	6.810	200.33794	196.27359	292.68073	201.10794	195.31883	150.62436	
683	6.820	200.34055	196.27386	292.68085	201.11081	195.31802	150.62477	
684	6.830	200.34250	196.27408	292.68085	201.11319	195.31834	150.62433	
685	6.840	200.34328	196.27411	292.68082	201.11478	195.31972	150.62334	
686	6.850	200.34283	196.27390	292.68073	201.11559	195.32201	150.62206	
687	6.860	200.34146	196.27350	292.68060	201.11571	195.32506	150.62067	
688	6.870	200.33968	196.27296	292.68039	201.11530	195.32875	150.61935	
689	6.880	200.33804	196.27246	292.68008	201.11464	195.33275	150.61816	
690	6.890	200.33691	196.27214	292.67987	201.11412	195.33678	150.61691	
691	6.900	200.33600	196.27213	292.68011	201.11412	195.34076	150.61517	
692	6.910	200.33446	196.27235	292.68106	201.11482	195.34471	150.61229	
693	6.920	200.33162	196.27252	292.68250	201.11617	195.34851	150.60759	
694	6.930	200.32738	196.27237	292.68396	201.11836	195.35167	150.60025	
695	6.940	200.32211	196.27174	292.68506	201.12236	195.35342	150.58917	
696	6.950	200.31654	196.27069	292.68555	201.12935	195.35291	150.57324	
697	6.960	200.31163	196.26941	292.68542	201.14014	195.34937	150.55179	
698	6.970	200.30821	196.26820	292.68488	201.15469	195.34241	150.52502	
699	6.980	200.30682	196.26743	292.68420	201.17174	195.33246	150.49442	
700	6.990	200.30757	196.26736	292.68381	201.18880	195.32089	150.46292	
701	7.000	200.31018	196.26807	292.68381	201.20331	195.30957	150.43408	
702	7.010	200.31412	196.26941	292.68414	201.21402	195.30000	150.41049	
703	7.020	200.31860	196.27104	292.68460	201.22108	195.29282	150.39297	
704	7.030	200.32274	196.27252	292.68478	201.22510	195.28798	150.38091	
705	7.040	200.32578	196.27345	292.68451	201.22682	195.28502	150.37305	
706	7.050	200.32739	196.27367	292.68378	201.22717	195.28340	150.36819	
707	7.060	200.32764	196.27327	292.68295	201.22690	195.28267	150.36546	
708	7.070	200.32674	196.27255	292.68237	201.22644	195.28252	150.36430	
709	7.080	200.32507	196.27177	292.68228	201.22591	195.28271	150.36430	
710	7.090	200.32298	196.27107	292.68262	201.22507	195.28307	150.36493	
711	7.100	200.32047	196.27036	292.68311	201.22346	195.28348	150.36572	
712	7.110	200.31735	196.26942	292.68356	201.22079	195.28386	150.36646	
713	7.120	200.31381	196.26833	292.68381	201.21727	195.28419	150.36713	
714	7.130	200.31036	196.26721	292.68390	201.21350	195.28450	150.36789	
715	7.140	200.30763	196.26633	292.68393	201.21011	195.28473	150.36874	
716	7.150	200.30612	196.26584	292.68396	201.20763	195.28487	150.36963	
717	7.160	200.30618	196.26591	292.68414	201.20647	195.28488	150.37030	
718	7.170	200.30789	196.26666	292.68469	201.20638	195.28473	150.37029	
719	7.180	200.31100	196.26808	292.68561	201.20618	195.28433	150.36868	
720	7.190	200.31494	196.26987	292.68668	201.20432	195.28362	150.36411	
721	7.200	200.31895	196.27153	292.68738	201.19949	195.28244	150.35483	
722	7.210	200.32246	196.27272	292.68744	201.19081	195.28069	150.33896	
723	7.220	200.32512	196.27330	292.68674	201.17790	195.27829	150.31482	
724	7.230	200.32680	196.27341	292.68561	201.16179	195.27528	150.28177	
725	7.240	200.32762	196.27335	292.68463	201.14507	195.27193	150.24118	
726	7.250	200.32794	196.27339	292.68423	201.13132	195.26875	150.19650	
727	7.260	200.32791	196.27357	292.68445	201.12357	195.26642	150.15228	
728	7.270	200.32747	196.27368	292.68512	201.12247	195.26543	150.11278	
729	7.280	200.32658	196.27357	292.68579	201.12593	195.26585	150.08081	
730	7.290	200.32535	196.27318	292.68613	201.13072	195.26741	150.05746	
731	7.300	200.32394	196.27252	292.68594	201.13426	195.26978	150.04218	
732	7.310	200.32266	196.27176	292.68515	201.13531	195.27263	150.03323	
733	7.320	200.32195	196.27106	292.68384	201.13377	195.27568	150.02884	
734	7.330	200.32208	196.27055	292.68210	201.13042	195.27859	150.02728	
735	7.340	200.32280	196.27022	292.68015	201.12663	195.28099	150.02731	
736	7.350	200.32338	196.26991	292.67822	201.12373	195.28262	150.02820	
737	7.360	200.32315	196.26956	292.67673	201.12234	195.28337	150.02960	
738	7.370	200.32193	196.26915	292.67621	201.12230	195.28342	150.03133	
739	7.380	200.31996	196.26878	292.67694	201.12315	195.28305	150.03325	
740	7.390	200.31792	196.26854	292.67856	201.12466	195.28250	150.03526	
741	7.400	200.31677	196.26852	292.68036	201.12648	195.28197	150.03741	
742	7.410	200.31738	196.26880	292.68170	201.12798	195.28156	150.03983	
743	7.420	200.32043	196.26933	292.68207	201.12846	195.28142	150.04239	
744	7.430	200.32634	196.27017	292.68124	201.12737	195.28165	150.04459	
745	7.440	200.33511	196.27132	292.67926	201.12407	195.28242	150.04524	
746	7.450	200.34598	196.27261	292.67633	201.11798	195.28391	150.04263	
747	7.460	200.35706	196.27379	292.67291	201.10901	195.28598	150.03470	
748	7.470	200.36588	196.27455	292.66983	201.09842	195.28809	150.01929	
749	7.480	200.37067	196.27489	292.66779	201.08836	195.28943	149.99440	
750	7.490	200.37103	196.27499	292.66718	201.08057	195.28944	149.95876	
751	7.500	200.36795	196.27509	292.66772	201.07552	195.28793	149.91266	
752	7.510	200.36314	196.27534	292.66864	201.07326	195.28477	149.85889	
753	7.520	200.35858	196.27585	292.66919	201.07391	195.28008	149.80257	
754	7.530	200.35548	196.27649	292.66895	201.07716	195.27448	149.74988	
755	7.540	200.35387	196.27690	292.66815	201.08177	195.26891	149.70601	
756	7.550	200.35301	196.27679	292.66736	201.08611	195.26408	149.67374	
757	7.560	200.35234	196.27612	292.66711	201.08914	195.26031	149.65298	
758	7.570	200.35159	196.27509	292.66763	201.09068	195.25761	149.64185	
759	7.580	200.35066	196.27400	292.66885	201.09105	195.25586	149.63760	
760	7.590	200.34979	196.27315	292.67038	201.09074	195.25487	149.63759	
761	7.600	200.34918	196.27269	292.67175	201.09055	195.25450	149.63951	
762	7.610	200.34863	196.27263	292.67261	201.09109	195.25462	149.64169	
763	7.620	200.34770	196.27287	292.67288	201.09276	195.25510	149.64314	
764	7.630	200.34596	196.27339	292.67267	201.09540	195.25580	149.64359	
765	7.640	200.34346	196.27414	292.67215	201.09842	195.25655	149.64325	
766	7.650	200.34062	196.27512	292.67160	201.10118	195.25725	149.64264	
767	7.660	200.33795	196.27611	292.67139	201.10344	195.25781	149.64206	
768	7.670	200.33569	196.27676	292.67184	201.10529	195.25829	149.64172	
769	7.680	200.33395	196.27681	292.67310	201.10686	195.25865	149.64166	
